HIERARCHY
ROOT Hips
{
	OFFSET -0.001795 -0.223333 0.028219
	CHANNELS 6 Xposition Yposition Zposition Zrotation Yrotation Xrotation 
	JOINT LeftUpLeg
	{
		OFFSET 0.069520 -0.091406 -0.006815
		CHANNELS 3 Zrotation Yrotation Xrotation
		JOINT LeftLeg
		{
			OFFSET 0.034277 -0.375199 -0.004496
			CHANNELS 3 Zrotation Yrotation Xrotation
			JOINT LeftFoot
			{
				OFFSET -0.013596 -0.397961 -0.043693
				CHANNELS 3 Zrotation Yrotation Xrotation
				JOINT LeftToe
				{
					OFFSET 0.026358 -0.055791 0.119288
					CHANNELS 3 Zrotation Yrotation Xrotation
					End Site
					{
						OFFSET 0.000000 0.000000 0.000000
					}
				}
			}
		}
	}
	JOINT RightUpLeg
	{
		OFFSET -0.067670 -0.090522 -0.004320
		CHANNELS 3 Zrotation Yrotation Xrotation
		JOINT RightLeg
		{
			OFFSET -0.038290 -0.382569 -0.008850
			CHANNELS 3 Zrotation Yrotation Xrotation
			JOINT RightFoot
			{
				OFFSET 0.015774 -0.398415 -0.042312
				CHANNELS 3 Zrotation Yrotation Xrotation
				JOINT RightToe
				{
					OFFSET -0.025372 -0.048144 0.123348
					CHANNELS 3 Zrotation Yrotation Xrotation
					End Site
					{
						OFFSET 0.000000 0.000000 0.000000
					}
				}
			}
		}
	}
	JOINT Spine
	{
		OFFSET -0.002533 0.108963 -0.026696
		CHANNELS 3 Zrotation Yrotation Xrotation
		JOINT Spine1
		{
			OFFSET 0.005487 0.135180 0.001092
			CHANNELS 3 Zrotation Yrotation Xrotation
			JOINT Spine2
			{
				OFFSET 0.001457 0.052922 0.025425
				CHANNELS 3 Zrotation Yrotation Xrotation
				JOINT Neck
				{
					OFFSET -0.002778 0.213870 -0.042857
					CHANNELS 3 Zrotation Yrotation Xrotation
					JOINT Head
					{
						OFFSET 0.005152 0.064970 0.051349
						CHANNELS 3 Zrotation Yrotation Xrotation
						End Site
						{
							OFFSET 0.000000 0.000000 0.000000
						}
					}
				}
				JOINT LeftShoulder
				{
					OFFSET 0.078845 0.121749 -0.034090
					CHANNELS 3 Zrotation Yrotation Xrotation
					JOINT LeftArm
					{
						OFFSET 0.090977 0.030469 -0.008868
						CHANNELS 3 Zrotation Yrotation Xrotation
						JOINT LeftForeArm
						{
							OFFSET 0.259612 -0.012772 -0.027456
							CHANNELS 3 Zrotation Yrotation Xrotation
							JOINT LeftHand
							{
								OFFSET 0.249234 0.008986 -0.001171
								CHANNELS 3 Zrotation Yrotation Xrotation
								End Site
								{
									OFFSET 0.000000 0.000000 0.000000
								}
							}
						}
					}
				}
				JOINT RightShoulder
				{
					OFFSET -0.081759 0.118833 -0.038615
					CHANNELS 3 Zrotation Yrotation Xrotation
					JOINT RightArm
					{
						OFFSET -0.096012 0.032551 -0.009143
						CHANNELS 3 Zrotation Yrotation Xrotation
						JOINT RightForeArm
						{
							OFFSET -0.253742 -0.013329 -0.021401
							CHANNELS 3 Zrotation Yrotation Xrotation
							JOINT RightHand
							{
								OFFSET -0.255298 0.007772 -0.005559
								CHANNELS 3 Zrotation Yrotation Xrotation
								End Site
								{
									OFFSET 0.000000 0.000000 0.000000
								}
							}
						}
					}
				}
			}
		}
	}
}
MOTION
Frames: 7
Frame Time: 0.050000
0.721597 0.976483 0.733835 14.416781 82.189899 12.654543 -4.263293 -1.769410 -13.848663 -0.568057 -1.109682 7.754153 -2.422083 10.211333 17.483894 0.000000 0.000000 0.000000 -4.023172 -2.157228 4.302351 -5.587561 -6.505472 24.864723 6.080846 10.066692 12.351579 0.000000 0.000000 0.000000 0.434455 -2.140412 15.756948 -4.958779 -0.288657 -34.709722 1.293450 17.973669 34.841422 14.176562 5.864244 -31.209153 0.000000 0.000000 0.000000 -10.936494 -8.303636 -16.354941 -59.665236 3.844156 -11.707264 -6.564477 -33.058450 -3.896078 0.000000 0.000000 0.000000 26.307898 -17.657748 8.318350 65.404704 23.518467 7.808256 -11.646471 30.932189 0.689156 0.000000 0.000000 0.000000 
0.751163 0.979053 0.726530 16.705754 83.469989 13.991160 -5.153884 -1.106813 -11.014858 -0.362888 -1.110933 7.651828 -3.658104 8.670741 17.068386 0.000000 0.000000 0.000000 -3.009694 -1.761106 2.294195 -11.646880 -8.816389 33.498459 8.871663 13.759744 15.963074 0.000000 0.000000 0.000000 -0.406521 -2.077841 15.783054 -4.651185 -0.157641 -34.172435 0.997270 17.284337 35.519496 13.924924 6.182124 -31.730630 0.000000 0.000000 0.000000 -11.448277 -8.723520 -17.165010 -58.285063 4.862283 -11.087526 -6.563167 -32.598554 -3.779532 0.000000 0.000000 0.000000 25.607304 -17.107368 8.724643 66.671540 24.532485 9.207539 -11.595893 30.923603 0.592554 0.000000 0.000000 0.000000 
0.779583 0.980306 0.719792 17.878039 84.844322 13.651200 -5.736840 -0.483614 -7.617766 -0.008468 -1.089154 7.472909 -3.943887 8.361617 17.348961 0.000000 0.000000 0.000000 -1.875120 -1.315047 -1.629624 -19.989607 -11.719703 44.549721 11.605254 17.044935 16.555512 0.000000 0.000000 0.000000 -1.074597 -2.363946 16.947767 -3.709445 -0.180062 -34.504197 0.050757 16.400725 35.983151 14.232252 5.960155 -31.453929 0.000000 0.000000 0.000000 -11.478545 -8.634017 -17.308102 -57.586076 4.884295 -10.570729 -6.799522 -32.584778 -3.717462 0.000000 0.000000 0.000000 25.224123 -17.087795 8.515461 66.905879 24.875383 9.663278 -10.376913 31.034110 0.785172 0.000000 0.000000 0.000000 
0.806327 0.981144 0.714100 18.897232 86.113302 13.401649 -6.267107 -0.089631 -4.265410 0.393878 -0.970050 6.600119 -3.400073 8.311678 17.038718 0.000000 0.000000 0.000000 -0.795702 -1.157178 -6.103376 -27.004426 -12.994178 52.617330 12.530886 18.830107 13.811452 0.000000 0.000000 0.000000 -1.096825 -2.542905 17.478338 -3.916779 -0.012175 -33.930358 -0.156258 15.127409 36.693978 13.647642 6.386005 -31.899542 0.000000 0.000000 0.000000 -12.052596 -9.802017 -17.726408 -56.842876 5.081420 -9.706934 -5.479164 -32.458659 -4.045619 0.000000 0.000000 0.000000 23.959866 -16.190290 8.554700 67.857612 24.504461 10.316804 -10.526017 31.334509 0.707470 0.000000 0.000000 0.000000 
0.832236 0.981825 0.709471 16.367056 87.474484 10.152888 -6.379132 0.052051 -1.777596 0.956891 -0.963596 6.676352 -2.864823 7.840706 16.058528 0.000000 0.000000 0.000000 0.487136 -1.138718 -9.521865 -29.343429 -13.509246 55.535252 11.996626 18.989545 10.264230 0.000000 0.000000 0.000000 -0.736741 -2.884427 18.338092 -3.735238 0.025476 -33.983907 -1.031349 14.104967 36.174582 13.875183 5.996908 -30.944072 0.000000 0.000000 0.000000 -12.617933 -11.153322 -17.467210 -56.468155 5.198364 -9.195004 -3.892339 -33.164238 -4.610140 0.000000 0.000000 0.000000 23.729716 -15.607837 8.733633 67.956311 23.835604 9.902932 -10.205617 31.273293 0.684963 0.000000 0.000000 0.000000 
0.858284 0.982656 0.705401 12.128329 88.590803 5.297640 -6.833236 0.051201 1.283046 1.543202 -0.847770 5.936335 -1.973804 7.198293 14.421705 0.000000 0.000000 0.000000 1.566494 -1.305144 -12.438331 -24.506015 -13.293244 50.370618 9.232601 14.963257 7.139570 0.000000 0.000000 0.000000 -0.221698 -3.111744 18.779831 -3.954044 0.198845 -33.581296 -1.519609 12.671564 36.251146 13.775737 5.998310 -30.925585 0.000000 0.000000 0.000000 -13.014258 -11.280759 -17.532071 -56.182348 4.279038 -8.431086 -3.811219 -32.781838 -4.489416 0.000000 0.000000 0.000000 24.231476 -15.081112 9.395197 67.070777 24.282060 9.156229 -9.351165 31.335673 0.798260 0.000000 0.000000 0.000000 
0.885127 0.981773 0.701965 -42.027984 89.661218 -48.890397 -6.712838 -0.136054 4.121925 1.818465 -0.713979 4.877457 -1.845170 6.531707 13.637742 0.000000 0.000000 0.000000 2.821396 -1.404185 -14.603490 -16.726373 -11.387530 40.476128 5.811223 9.105808 6.455159 0.000000 0.000000 0.000000 0.196287 -3.243519 18.927177 -3.929685 -0.000119 -34.174743 -1.672242 11.386191 37.094277 13.094011 6.462511 -31.574153 0.000000 0.000000 0.000000 -12.895139 -11.055234 -17.517953 -56.430417 3.794443 -8.410482 -4.456227 -33.310823 -4.387674 0.000000 0.000000 0.000000 24.822705 -15.250317 9.614075 66.010907 24.167026 8.167609 -8.156189 30.801624 0.934684 0.000000 0.000000 0.000000 
